<svg width="54" height="69" viewBox="0 0 54 69" fill="none" xmlns="http://www.w3.org/2000/svg">
<path d="M23.8727 22.6936H41.1299M23.8727 38.6447H41.1299M23.8727 55.5627H41.1299M13.3266 9.64261H9.86364H1V68H22.377H53V9.64261H41.1299M13.3266 9.64261V4.80891L20.0377 4.80885C20.9965 -0.0250729 32.1589 -0.508415 33.1176 4.80885H41.1299V9.64261M13.3266 9.64261H41.1299M29.549 6.25875H24.3521V7.22549M7.0948 50.2456V60.3964H17.1615V50.2456H7.0948ZM7.0948 33.3277V43.4784H17.1615V33.3277H7.0948ZM11.4091 16.8931H7.0948V27.0439H17.1615V22.6936V16.8931H11.4091Z" stroke="#0486FE" stroke-width="2"/>
</svg>
