<svg width="1440" height="2999" viewBox="0 0 1440 2999" fill="none" xmlns="http://www.w3.org/2000/svg">
<path d="M-30 146L1469.82 146C1469.82 146 1469.82 282.61 1469.82 492.261C1469.82 701.911 1006.5 558.911 881 785.411C755.5 1011.91 -30 1145.76 -30 1145.76L-30 146Z" fill="#3E8CF8" fill-opacity="0.05"/>
<path d="M-30 -44L1469.82 -44C1469.82 -44 1469.82 92.6103 1469.82 302.261C1469.82 511.911 1006.5 368.911 881 595.411C755.5 821.911 -30 955.764 -30 955.764L-30 -44Z" fill="#3E8CF8" fill-opacity="0.2"/>
<path d="M-30 1909.73C-30 1909.73 368.87 1996.15 720 1702.8C1071.13 1409.46 1470 1495.88 1470 1495.88C1470 1495.88 1470 2013.75 1470 2173.39C1470 2333.03 980.144 2000 694.5 2392.5C408.856 2785 -30 2671 -30 2671L-30 1909.73Z" fill="#3E8CF8" fill-opacity="0.05"/>
<path d="M-60 -176L1439.82 -176C1439.82 -176 1439.82 -39.3897 1439.82 170.261C1439.82 379.911 976.5 236.911 851 463.411C725.5 689.911 -60 823.764 -60 823.764L-60 -176Z" fill="#3E8CF8" fill-opacity="0.5"/>
<path d="M-156 -270H1343.82C1343.82 -270 1343.82 -133.39 1343.82 76.2607C1343.82 285.911 880.5 142.911 755 369.411C629.5 595.911 -156 729.764 -156 729.764L-156 -270Z" fill="#3C87ED"/>
</svg>
